<svg width="512" height="512" viewBox="0 0 512 512" fill="none" xmlns="http://www.w3.org/2000/svg">
<defs>
<linearGradient id="emeraldGradient" x1="0" y1="0" x2="512" y2="512" gradientUnits="userSpaceOnUse">
<stop offset="0" stop-color="#064e3b" />
<stop offset="1" stop-color="#065f46" />
</linearGradient>
<linearGradient id="goldGradient" x1="150" y1="150" x2="362" y2="362" gradientUnits="userSpaceOnUse">
<stop offset="0" stop-color="#fbbf24" />
<stop offset="1" stop-color="#d97706" />
</linearGradient>
<filter id="glow" x="-20%" y="-20%" width="140%" height="140%" filterUnits="userSpaceOnUse">
<feGaussianBlur stdDeviation="15" result="blur" />
<feComposite in="SourceGraphic" in2="blur" operator="over" />
</filter>
</defs>
<circle cx="256" cy="256" r="240" fill="url(#emeraldGradient)" stroke="#065f46" stroke-width="8" />
<path d="M340 160C340 259.411 259.411 340 160 340C140.407 340 121.722 336.852 104.286 331.026C131.758 362.469 172.502 382 218 382C300.843 382 368 314.843 368 232C368 186.502 348.469 145.758 317.026 118.286C331.852 135.722 340 154.407 340 160Z" fill="url(#goldGradient)" filter="url(#glow)" />
<path d="M210 380V320M210 320L180 290V250L210 220L240 250V290L210 320ZM210 220V180M210 180L200 170H220L210 180Z" stroke="white" stroke-width="4" stroke-linecap="round" stroke-linejoin="round" opacity="0.3" />
<path d="M256 60L265 90H295L270 110L280 140L256 120L232 140L242 110L217 90H247L256 60Z" fill="#fbbf24" opacity="0.8" />
</svg>
